<?xml version="1.0" ?><!DOCTYPE svg  PUBLIC '-//W3C//DTD SVG 1.1//EN'  'http://www.w3.org/Graphics/SVG/1.1/DTD/svg11.dtd'><svg enable-background="new 0 0 512 512" height="512px" id="Competitive_x5F_advantage" version="1.1" viewBox="0 0 512 512" width="512px" xml:space="preserve" xmlns="http://www.w3.org/2000/svg" xmlns:xlink="http://www.w3.org/1999/xlink"><g><path d="M254.5,40.55c3.416,0,7-2.771,7-6.188V19.653c0-3.416-3.584-6.188-7-6.188s-7,2.771-7,6.188v14.709   C247.5,37.778,251.084,40.55,254.5,40.55z"/><path d="M304.469,60.081c1.584,0,3.166-0.605,4.375-1.813l10.402-10.402c2.416-2.418,2.416-6.336,0-8.75   c-2.418-2.416-6.332-2.416-8.75,0l-10.402,10.402c-2.416,2.416-2.416,6.334,0,8.75C301.303,59.476,302.885,60.081,304.469,60.081z"/><path d="M201.533,60.032c1.209,1.209,2.791,1.813,4.375,1.813s3.166-0.604,4.375-1.813c2.418-2.414,2.418-6.332,0-8.75   l-10.402-10.4c-2.416-2.418-6.332-2.418-8.748,0c-2.418,2.414-2.418,6.332,0,8.748L201.533,60.032z"/><path d="M172.318,126.876c-1.063-5.381-1.604-10.98-1.604-16.641c0-6.27,0.688-12.514,2.043-18.559   c0.748-3.332-1.348-6.643-4.684-7.391c-3.309-0.736-6.643,1.346-7.393,4.684c-1.553,6.932-2.342,14.088-2.342,21.266   c0,6.465,0.619,12.871,1.842,19.043c0.582,2.947,3.168,4.988,6.063,4.988c0.396,0,0.801-0.039,1.207-0.121   C170.803,133.485,172.982,130.228,172.318,126.876z"/><path d="M339.18,145.001c-3.055-1.523-6.775-0.273-8.295,2.787c-14.387,28.951-43.391,46.941-75.695,46.951   c-32.305-0.01-61.307-18-75.693-46.951c-1.523-3.061-5.244-4.311-8.295-2.787c-3.061,1.52-4.309,4.924-2.789,7.987   c16.486,33.176,49.711,53.512,86.729,53.512c0.006,0,0.014,0,0.02,0c0.018,0,0.039,0,0.057,0c0.008,0,0.014,0,0.02,0   c37.018,0,70.246-20.336,86.73-53.512C343.488,149.925,342.24,146.521,339.18,145.001z"/><path d="M350.166,129.288c1.244-6.236,1.875-12.645,1.875-19.053c0-7.193-0.797-14.375-2.363-21.344   c-0.75-3.336-4.064-5.436-7.395-4.678c-3.332,0.748-5.428,4.059-4.678,7.393c1.367,6.08,2.061,12.348,2.061,18.629   c0,5.594-0.553,11.191-1.639,16.631c-0.668,3.352,1.508,6.609,4.859,7.279c0.408,0.082,0.814,0.121,1.217,0.121   C346.992,134.267,349.576,132.229,350.166,129.288z"/><path d="M314.971,228.5H194.48c-3.711,0-7.98,4.386-7.98,8.122v2.25v253.094c0,3.713,4.27,6.534,7.98,6.534h120.49   c3.711,0,6.529-2.821,6.529-6.534V238.872v-2.25C321.5,232.886,318.682,228.5,314.971,228.5z"/><path d="M207.842,104.726l22.078,16.433c1.637,1.189,2.32,3.492,1.697,5.416l-8.434,26.053c-1.396,4.301,3.525,7.927,7.184,5.269   l22.078-16.019c1.637-1.189,3.852-1.177,5.488,0.012l22.078,16.049c3.658,2.658,8.58-0.917,7.182-5.217l-8.432-25.953   c-0.625-1.924,0.061-4.03,1.695-5.218l22.08-16.826c3.66-2.658,1.777-9.226-2.744-9.226h-27.291c-2.021,0-3.814-0.52-4.439-2.444   l-8.434-25.563c-1.396-4.303-7.48-4.106-8.879,0.195l-8.432,25.27c-0.627,1.924-2.42,2.542-4.441,2.542h-27.293   C206.063,95.5,204.184,102.068,207.842,104.726z"/><path d="M162.5,366.25c0-3.728-3.022-6.75-6.75-6.75H34.25c-3.728,0-6.75,3.022-6.75,6.75v126.5c0,3.728,3.022,6.75,6.75,6.75   h121.5c3.728,0,6.75-3.022,6.75-6.75V366.25z"/><path d="M81.66,284.896c1.039,0.756,1.473,2.092,1.076,3.313l-2.916,8.971c-0.885,2.729,2.236,4.996,4.557,3.311l7.633-5.545   c1.039-0.754,2.443-0.754,3.48,0l7.633,5.545c2.32,1.686,5.441-0.582,4.557-3.311l-2.916-8.971   c-0.396-1.221,0.037-2.557,1.074-3.313l7.635-5.792c2.32-1.682,1.127-5.604-1.74-5.604h-9.436c-1.281,0-2.42-0.578-2.814-1.797   l-2.916-8.848c-0.885-2.729-4.746-2.668-5.631,0.061l-2.916,8.755c-0.396,1.221-1.535,1.829-2.818,1.829H75.77   c-2.867,0-4.061,3.922-1.74,5.604L81.66,284.896z"/><path d="M93.75,337.503c30.131,0,54.643-24.512,54.643-54.641S123.881,228.22,93.75,228.22c-30.129,0-54.643,24.514-54.643,54.643   S63.621,337.503,93.75,337.503z M93.75,240.595c23.344,0,42.268,18.924,42.268,42.268s-18.924,42.266-42.268,42.266   c-23.342,0-42.268-18.922-42.268-42.266S70.408,240.595,93.75,240.595z"/><path d="M483.5,366.25c0-3.728-3.022-6.75-6.75-6.75h-121.5c-3.728,0-6.75,3.022-6.75,6.75v126.5c0,3.728,3.022,6.75,6.75,6.75   h121.5c3.728,0,6.75-3.022,6.75-6.75V366.25z"/><path d="M403.609,284.896c1.039,0.756,1.473,2.092,1.076,3.313l-2.914,8.971c-0.887,2.729,2.236,4.996,4.557,3.311l7.631-5.545   c1.039-0.754,2.443-0.754,3.48,0l7.633,5.545c2.32,1.686,5.443-0.582,4.559-3.311l-2.916-8.971   c-0.398-1.221,0.037-2.557,1.074-3.313l7.633-5.792c2.32-1.682,1.127-5.604-1.74-5.604h-9.436c-1.283,0-2.418-0.578-2.814-1.797   l-2.916-8.848c-0.885-2.729-4.746-2.668-5.631,0.061l-2.916,8.755c-0.396,1.221-1.533,1.829-2.816,1.829h-9.434   c-2.867,0-4.061,3.922-1.74,5.604L403.609,284.896z"/><path d="M415.699,337.503c30.131,0,54.645-24.512,54.645-54.641s-24.514-54.643-54.645-54.643   c-30.129,0-54.643,24.514-54.643,54.643S385.57,337.503,415.699,337.503z M415.699,240.595c23.344,0,42.27,18.924,42.27,42.268   s-18.926,42.266-42.27,42.266c-23.342,0-42.268-18.922-42.268-42.266S392.357,240.595,415.699,240.595z"/></g></svg>